<svg version="1.1" xmlns="http://www.w3.org/2000/svg" xmlns:xlink="http://www.w3.org/1999/xlink" x="0px" y="0px"
	 viewBox="0 0 420 300" xml:space="preserve">
	<style type="text/css">
		.st1{fill:#232323;}
		.st2{opacity:0.2; fill:#FF3366;}
		.st3{fill:#FF3366;}
		.st4{opacity:0.1;}
	</style>
	<g>
		<g class="st0">
			<path class="st1" d="M18.9,139V18.2h54.5c12.7,0,25.9,1.4,36.9,12.5c6.2,6.2,11.4,15.4,11.4,29.7c0,10.7-3.3,17.4-6.7,21.6
				c-3.6,4.5-9.6,8.1-16.7,9.6l33.5,47.4H81.4l-19.7-38.8V139L18.9,139L18.9,139z M61.6,72h5.1c2.5,0,6.5-0.4,9.2-2.7
				c1.4-1.3,3.1-3.6,3.1-7.4c0-2.7-0.7-5.4-2.4-7.2c-1.4-1.6-3.8-3.3-7.4-3.3h-7.6V72z"/>
			<path class="st1" d="M258.3,34.9c-10.3-10.5-27.2-19.4-50.2-19.4s-39.8,8.9-50.2,19.4c-9.4,9.6-16.8,24.4-16.8,43.6
				c0,19.4,7.4,34.2,16.8,43.8c10.3,10.5,27.2,19.4,50.2,19.4c9.2,0,16.9-1.4,24.1-3.8L256.3,96l1.5,2.9l-21.9,37.9
				c9.3-3.6,16.8-8.8,22.4-14.5c9.4-9.6,16.8-24.4,16.8-43.8C275.1,59.3,267.7,44.5,258.3,34.9z M223.9,96.6
				c-3.6,3.6-9.1,6.2-15.8,6.2c-6.7,0-12.1-2.5-15.8-6.2c-4.3-4.3-6.9-11-6.9-17.9c0-6.5,2.5-13.6,6.9-18.1c2.9-3.1,8-6.2,15.8-6.2
				c7.2,0,12.5,2.9,15.8,6.2c4.3,4.2,6.9,10.5,6.9,18.1C230.7,86.3,227.8,92.6,223.9,96.6z"/>
			<path class="st1" d="M297.3,18.2H350c10.3,0,26.4,1.1,36,10.1c2.9,2.7,9.2,10,9.2,23.5c0,4.5-0.5,11-5.1,16.7
				c-2.4,2.9-10.6,8.1-10.6,8.1s8.8,4.1,12.6,7.7c6,5.8,8.9,12.3,8.9,21c0,9.4-3.1,17.7-11.4,24.4c-10.1,8.1-22.4,9.2-31,9.2h-61.4
				L297.3,18.2L297.3,18.2z M337.9,64.6h6.9c2.5,0,6.3-0.7,8.3-2.7c1.1-1.1,2.4-3.1,2.4-6.3c0-3.4-1.6-5.4-2.7-6.3
				c-2.4-1.8-6.3-2-8-2h-6.9L337.9,64.6L337.9,64.6z M337.9,109.8h8.9c2.5,0,6.3-0.2,9.2-2c2.2-1.4,4.2-4.2,4.2-8.1
				c0-3.1-1.3-5.6-3.3-7.2c-2.9-2.4-7.2-2.5-9.6-2.5h-9.4L337.9,109.8L337.9,109.8z"/>
		</g>
		<g class="st0">
			<path class="st1" d="M82.4,263.5V141.8h58.4c19.3,0,30.5,7.8,35.6,12.8c10,9.9,12.4,22.3,12.4,31.9c0,10-2.2,21.5-12,30.5
				c-9.7,8.8-20.6,9.9-29.9,9.9h-21.4v36.7L82.4,263.5L82.4,263.5z M125.5,196.2h7.5c2.2,0,6.8-0.2,9.9-3.3c1.6-1.5,2.9-3.8,2.9-7.5
				c0-3.8-1.6-6.2-3.3-7.5c-2-1.6-5.7-2.7-8.9-2.7h-8V196.2z"/>
		</g>
		<g>
			<g>
				<polygon class="st2" points="257.7,265.1 266.6,252.4 261.9,252.4 276.6,227 271.4,227 288.6,197.2 273.9,212.4 257.8,206.9 
					241.3,212.3 226.6,197 244.1,227 238.8,227 253.5,252.4 248.8,252.4"/>
				<polygon class="st2" points="226.6,197 241.3,212.3 257.8,206.9 273.9,212.3 288.6,197.1 273.9,214.2 257.7,211.7 241.5,214.1 
								"/>
			</g>
			<g>
				<g>
					<g>
						<path class="st3" d="M303.9,191.1l-17.8-26.8h4.7L276.1,140h5.3l-23.7-41l-23.7,41h5.3l-14.7,24.3h4.7l-17.8,26.8h37.7
							l-0.6-5.8h18.2l-0.6,5.8H303.9z M256.7,173.2l-0.5-11.7l-3-2.9l2.9-10.7l2.7,2l-2.4,7.4l3.2,3.6L256.7,173.2z"/>
						<polygon class="st3" points="341.2,277.4 323.4,252.4 328.1,252.4 313.4,227 318.7,227 295,186 271.4,227 276.6,227 
							261.9,252.4 266.6,252.4 248.8,277.4 277.1,277.4 290,258.8 293.3,258.8 279.4,277.4 286.5,277.4 285.9,280.3 304.1,280.3 
							303.5,277.4		"/>
						<g>
							<polygon class="st3" points="277,277.4 272.6,283.6 274.2,284.5 279.5,277.4			"/>
						</g>
						<g>
							<polygon class="st3" points="266.6,277.4 248.8,252.4 253.5,252.4 238.8,227 244.1,227 220.4,186 196.8,227 202,227 
								187.3,252.4 192,252.4 174.2,277.4 211.9,277.4 211.3,280.3 229.5,280.3 228.9,277.4			"/>
						</g>
					</g>
					<polygon class="st3" points="261.5,214.5 260.3,213.3 257.7,214.6 255.1,213.3 253.9,214.5 257.7,218.3	"/>
					<polygon class="st3" points="255.8,205.6 256.4,206.2 257.7,205.5 259.1,206.2 259.7,205.6 257.7,203.6	"/>
					<g>
						<polygon class="st3" points="235.6,198 236.6,199.1 238.9,196.8 241.1,199.1 242.1,198 238.9,194.8		"/>
						<polygon class="st3" points="273.2,198 274.2,199.1 276.4,196.8 278.7,199.1 279.7,198 276.4,194.8		"/>
					</g>
				</g>
			</g>
			<g id="Shadows" class="st4">
				<polygon points="299,194.3 318.1,227 312.9,227 327.6,252.4 322.8,252.4 340.7,277.4 325.4,277.4 336.6,275.9 321.5,251 
					324.9,250.9 311.9,226.5 315.7,226.1"/>
				<polygon points="232.9,209.5 243.3,227 238.1,227 252.8,252.4 248,252.4 251.7,257.4 246.3,250.3 249.4,250.9 236.6,226.7 
					241.2,226.7"/>
				<polygon points="282.5,209.5 272.1,227 277.3,227 262.6,252.4 267.4,252.4 263.7,257.4 269.1,250.3 266,250.9 278.8,226.7 
					274.2,226.7"/>
				<polygon points="216.4,194.3 197.4,227 202.6,227 187.9,252.4 192.6,252.4 174.8,277.4 190.1,277.4 178.8,275.9 194,251 
					190.6,250.9 203.6,226.5 199.8,226.1"/>
				<polygon points="261.1,105.7 280.5,139.2 275.2,139.2 290.2,164.2 285.3,164.2 303.5,190.3 287.9,190.3 299.4,188.7 284,163.2 
					287.4,163.1 274.2,138.2 278,137.9"/>
				<polygon points="254.5,105.7 235.1,139.2 240.4,139.2 225.5,164.2 230.3,164.2 212.1,190.3 227.7,190.3 216.2,188.6 231.6,163.1 
					228.2,163 241.4,138.1 237.6,137.8"/>
			</g>
		</g>
	</g>
</svg>